<svg width="16" height="19" viewBox="0 0 16 19" fill="none" xmlns="http://www.w3.org/2000/svg">
<path d="M6.39989 -3.8147e-06C5.7417 -3.8147e-06 5.19989 0.541814 5.19989 1.2V2H2.06161C2.03915 1.99624 2.01641 1.99441 1.99364 1.99453C1.97426 1.99495 1.95494 1.99678 1.93582 2H1.19989C1.14688 1.99925 1.09426 2.00904 1.04507 2.0288C0.995882 2.04857 0.951114 2.07791 0.913366 2.11513C0.875618 2.15235 0.845643 2.1967 0.825184 2.2456C0.804725 2.2945 0.794189 2.34699 0.794189 2.4C0.794189 2.45301 0.804725 2.50549 0.825184 2.55439C0.845643 2.60329 0.875618 2.64764 0.913366 2.68486C0.951114 2.72208 0.995882 2.75142 1.04507 2.77119C1.09426 2.79095 1.14688 2.80075 1.19989 2.8H1.59989V17.2C1.59989 17.8582 2.1417 18.4 2.79989 18.4H13.1999C13.8581 18.4 14.3999 17.8582 14.3999 17.2V2.8H14.7999C14.8529 2.80075 14.9055 2.79095 14.9547 2.77119C15.0039 2.75142 15.0487 2.72208 15.0864 2.68486C15.1242 2.64764 15.1541 2.60329 15.1746 2.55439C15.195 2.50549 15.2056 2.45301 15.2056 2.4C15.2056 2.34699 15.195 2.2945 15.1746 2.2456C15.1541 2.1967 15.1242 2.15235 15.0864 2.11513C15.0487 2.07791 15.0039 2.04857 14.9547 2.0288C14.9055 2.00904 14.8529 1.99925 14.7999 2H14.0671C14.0239 1.99286 13.9798 1.99286 13.9366 2H10.7999V1.2C10.7999 0.541814 10.2581 -3.8147e-06 9.59988 -3.8147e-06H6.39989ZM6.39989 0.799996H9.59988C9.8217 0.799996 9.99989 0.978178 9.99989 1.2V2H5.99989V1.2C5.99989 0.978178 6.17807 0.799996 6.39989 0.799996ZM2.39989 2.8H5.5327C5.57589 2.80714 5.61997 2.80714 5.66317 2.8H10.3327C10.3759 2.80714 10.42 2.80714 10.4632 2.8H13.5999V17.2C13.5999 17.4218 13.4217 17.6 13.1999 17.6H2.79989C2.57807 17.6 2.39989 17.4218 2.39989 17.2V2.8ZM5.59364 4.79453C5.48769 4.79618 5.38672 4.83981 5.3129 4.91583C5.23908 4.99184 5.19843 5.09404 5.19989 5.2V15.2C5.19914 15.253 5.20893 15.3056 5.22869 15.3548C5.24846 15.404 5.2778 15.4488 5.31502 15.4865C5.35224 15.5243 5.39659 15.5542 5.44549 15.5747C5.49439 15.5952 5.54688 15.6057 5.59989 15.6057C5.6529 15.6057 5.70538 15.5952 5.75428 15.5747C5.80318 15.5542 5.84753 15.5243 5.88475 15.4865C5.92197 15.4488 5.95131 15.404 5.97108 15.3548C5.99084 15.3056 6.00064 15.253 5.99989 15.2V5.2C6.00062 5.14648 5.99061 5.09336 5.97044 5.04379C5.95027 4.99421 5.92036 4.94918 5.88248 4.91138C5.8446 4.87357 5.79952 4.84374 5.7499 4.82367C5.70029 4.8036 5.64715 4.79369 5.59364 4.79453ZM7.99364 4.79453C7.88769 4.79618 7.78672 4.83981 7.7129 4.91583C7.63908 4.99184 7.59843 5.09404 7.59989 5.2V15.2C7.59914 15.253 7.60893 15.3056 7.62869 15.3548C7.64846 15.404 7.6778 15.4488 7.71502 15.4865C7.75224 15.5243 7.79659 15.5542 7.84549 15.5747C7.89439 15.5952 7.94688 15.6057 7.99989 15.6057C8.0529 15.6057 8.10538 15.5952 8.15428 15.5747C8.20318 15.5542 8.24753 15.5243 8.28475 15.4865C8.32197 15.4488 8.35131 15.404 8.37108 15.3548C8.39084 15.3056 8.40063 15.253 8.39989 15.2V5.2C8.40062 5.14648 8.39061 5.09336 8.37044 5.04379C8.35027 4.99421 8.32036 4.94918 8.28248 4.91138C8.2446 4.87357 8.19952 4.84374 8.1499 4.82367C8.10029 4.8036 8.04715 4.79369 7.99364 4.79453ZM10.3936 4.79453C10.2877 4.79618 10.1867 4.83981 10.1129 4.91583C10.0391 4.99184 9.99843 5.09404 9.99989 5.2V15.2C9.99914 15.253 10.0089 15.3056 10.0287 15.3548C10.0485 15.404 10.0778 15.4488 10.115 15.4865C10.1522 15.5243 10.1966 15.5542 10.2455 15.5747C10.2944 15.5952 10.3469 15.6057 10.3999 15.6057C10.4529 15.6057 10.5054 15.5952 10.5543 15.5747C10.6032 15.5542 10.6475 15.5243 10.6847 15.4865C10.722 15.4488 10.7513 15.404 10.7711 15.3548C10.7908 15.3056 10.8006 15.253 10.7999 15.2V5.2C10.8006 5.14648 10.7906 5.09336 10.7704 5.04379C10.7503 4.99421 10.7204 4.94918 10.6825 4.91138C10.6446 4.87357 10.5995 4.84374 10.5499 4.82367C10.5003 4.8036 10.4471 4.79369 10.3936 4.79453Z" fill="#FF0B37"/>
</svg>
