<svg width="20" height="19" viewBox="0 0 20 19" fill="none" xmlns="http://www.w3.org/2000/svg">
<path d="M10 -3.8147e-06C4.92386 -3.8147e-06 0.800049 4.12381 0.800049 9.2C0.800049 10.8316 1.24752 12.3543 1.9938 13.6836L0.814893 17.8922C0.796058 17.9595 0.795207 18.0306 0.812424 18.0984C0.829641 18.1662 0.864325 18.2283 0.913017 18.2785C0.961708 18.3287 1.02271 18.3652 1.08993 18.3845C1.15715 18.4037 1.22826 18.4051 1.29614 18.3883L5.68442 17.3008C6.9739 17.9892 8.43709 18.4 10 18.4C15.0762 18.4 19.2 14.2762 19.2 9.2C19.2 4.12381 15.0762 -3.8147e-06 10 -3.8147e-06ZM10 0.799996C14.6439 0.799996 18.4 4.55618 18.4 9.2C18.4 13.8438 14.6439 17.6 10 17.6C8.51126 17.6 7.1169 17.2119 5.90474 16.5336C5.81608 16.4841 5.7119 16.4701 5.61333 16.4945L1.77036 17.4469L2.80083 13.7703C2.81558 13.7184 2.81965 13.6639 2.8128 13.6104C2.80595 13.5568 2.78833 13.5052 2.76099 13.4586C2.02432 12.2094 1.60005 10.756 1.60005 9.2C1.60005 4.55618 5.35624 0.799996 10 0.799996ZM6.65708 4.4C6.40066 4.4 6.03447 4.49539 5.73364 4.81953C5.55296 5.01422 4.80005 5.7478 4.80005 7.0375C4.80005 8.3821 5.73261 9.54234 5.84536 9.6914H5.84614V9.69218C5.83545 9.67813 5.98926 9.90087 6.19458 10.168C6.3999 10.4351 6.68701 10.7859 7.04771 11.1656C7.76909 11.9252 8.78336 12.803 10.0422 13.3398C10.622 13.5867 11.0793 13.7358 11.4258 13.8445C12.068 14.0462 12.6529 14.0155 13.0922 13.9508C13.4211 13.9023 13.7828 13.7444 14.1407 13.518C14.4985 13.2915 14.8493 13.0099 15.004 12.582C15.1148 12.2753 15.1711 11.9918 15.1915 11.7586C15.2016 11.642 15.2029 11.539 15.1954 11.4437C15.1878 11.3485 15.1959 11.2755 15.1071 11.1297C14.9209 10.8239 14.71 10.8159 14.4899 10.707C14.3676 10.6465 14.0195 10.4765 13.6704 10.3102C13.3216 10.144 13.0196 9.99678 12.8336 9.93046C12.7161 9.88819 12.5727 9.82734 12.3657 9.85078C12.1587 9.87422 11.9542 10.0236 11.8352 10.2C11.7224 10.3672 11.2682 10.9033 11.1297 11.0609C11.1279 11.0598 11.1399 11.0653 11.0852 11.0383C10.914 10.9535 10.7045 10.8815 10.3946 10.718C10.0846 10.5545 9.69695 10.3131 9.27271 9.93906V9.93828C8.64126 9.38238 8.19896 8.68444 8.05942 8.45C8.06882 8.43881 8.05831 8.45236 8.07817 8.43281L8.07896 8.43203C8.22156 8.29157 8.34794 8.12381 8.45474 8.00078C8.60615 7.82634 8.67297 7.67257 8.74536 7.5289C8.88963 7.24257 8.8093 6.92749 8.72583 6.76171V6.76093C8.73159 6.7724 8.68068 6.66006 8.62583 6.53047C8.57083 6.4005 8.50071 6.23201 8.42583 6.05234C8.27606 5.693 8.10886 5.28996 8.00942 5.0539V5.05312C7.89229 4.77507 7.73381 4.57476 7.52661 4.47812C7.31942 4.38148 7.13636 4.40896 7.12896 4.40859H7.12817C6.98032 4.40177 6.81806 4.4 6.65708 4.4ZM6.65708 5.2C6.8113 5.2 6.96333 5.20188 7.09067 5.20781C7.22167 5.21434 7.21352 5.21487 7.18833 5.20312C7.16273 5.19118 7.19746 5.18731 7.27192 5.36406C7.36929 5.5952 7.53732 5.9997 7.68755 6.36015C7.76266 6.54038 7.83297 6.70952 7.88911 6.84218C7.94526 6.97484 7.97568 7.04891 8.01099 7.11953V7.12031L8.01177 7.12109C8.04638 7.18939 8.04332 7.14566 8.0313 7.16953C7.94689 7.33706 7.93543 7.37819 7.85005 7.47656C7.72004 7.62633 7.58743 7.79336 7.51724 7.8625C7.45582 7.92282 7.34502 8.01681 7.27583 8.20078C7.20654 8.38503 7.23888 8.63782 7.35005 8.82656C7.49806 9.07784 7.98581 9.87172 8.7438 10.5391C9.22115 10.9599 9.66587 11.2384 10.0211 11.4258C10.3764 11.6132 10.6658 11.7226 10.7305 11.7547C10.8843 11.8308 11.0523 11.8899 11.2477 11.8664C11.4431 11.8429 11.6116 11.7244 11.7188 11.6031L11.7196 11.6023C11.8623 11.4405 12.2864 10.9563 12.4899 10.6578C12.4985 10.6608 12.4957 10.6585 12.5633 10.6828V10.6836H12.5641C12.595 10.6946 12.9818 10.8677 13.3266 11.032C13.6715 11.1964 14.0215 11.3671 14.1352 11.4234C14.2993 11.5047 14.3769 11.5575 14.3969 11.5578C14.3983 11.593 14.3996 11.6311 14.3946 11.6891C14.3806 11.8497 14.3376 12.0721 14.2516 12.3102C14.2095 12.4267 13.9901 12.6671 13.7133 12.8422C13.4366 13.0173 13.0998 13.141 12.975 13.1594C12.6 13.2146 12.1547 13.2348 11.6657 13.0812C11.3266 12.9748 10.9038 12.837 10.3563 12.6039C9.24597 12.1304 8.30229 11.3246 7.62817 10.6148C7.29112 10.26 7.02107 9.9296 6.82896 9.67968C6.6372 9.43023 6.55346 9.30042 6.48364 9.20859L6.48286 9.20781C6.35893 9.04392 5.60005 7.98834 5.60005 7.0375C5.60005 6.03119 6.06745 5.63657 6.32036 5.36406C6.45314 5.22099 6.5983 5.2 6.65708 5.2Z" fill="#0BC71E"/>
</svg>
